<svg width="66" height="66" viewBox="0 0 66 66" fill="none" xmlns="http://www.w3.org/2000/svg">
<path d="M35.0573 62.2697V58.8172C35.0573 56.3407 37.0649 54.3331 39.5414 54.3331H41.7398C43.0021 54.3331 44.0255 53.3098 44.0255 52.0474C44.0255 50.7851 43.0021 49.7617 41.7398 49.7617H40.5177C39.6284 49.7617 38.7724 49.424 38.1226 48.8168L37.1931 47.9481C35.8307 46.6749 35.0573 44.8937 35.0573 43.029V7.11585C35.0573 4.27247 37.5488 2.07217 40.3704 2.42374C40.9009 2.48985 41.4164 2.64546 41.895 2.88396L44.4853 4.175C49.921 6.88427 53.2866 12.5057 53.1075 18.5766C53.0267 21.3182 52.2234 23.9897 50.779 26.3213L48.6371 29.7787C48.5459 29.9259 48.4682 30.0812 48.4051 30.2425C47.6715 32.1172 49.054 34.1427 51.0672 34.1427H52.4308C53.998 34.1427 55.4035 33.1779 55.9669 31.7155L58.0618 26.2771C58.385 25.4384 59.4137 25.1315 60.1435 25.6561C62.5647 27.3966 64 30.1961 64 33.1779V42.3064C64 43.417 63.5394 44.4779 62.7279 45.2362L59.8651 47.9116C58.5592 49.132 57.5183 50.6079 56.807 52.2476L56.4143 53.1526C53.595 59.6516 47.1867 63.857 40.1026 63.857H36.6446C35.768 63.857 35.0573 63.1463 35.0573 62.2697Z" stroke="#0077FF" stroke-width="3"/>
<mask id="path-2-inside-1_1034_1964" fill="white">
<path d="M31.7969 65H17.7754C16.5134 64.9998 15.4905 63.9769 15.4902 62.7148C15.4902 61.4526 16.5132 60.4289 17.7754 60.4287H31.7969V65ZM31.7969 59.667H17.7754C16.5132 59.6668 15.4902 58.6431 15.4902 57.3809C15.4903 56.1187 16.5132 55.0959 17.7754 55.0957H31.7969V59.667ZM31.7969 54.333H17.7754C16.5133 54.3328 15.4903 53.31 15.4902 52.0479C15.4902 50.7856 16.5132 49.7619 17.7754 49.7617H31.7969V54.333ZM31.7969 49H20.4902C17.7288 49 15.4902 46.7614 15.4902 44V39.0957H15C6.71589 39.0957 0.000250467 32.3798 0 24.0957V16C5.07708e-06 7.71573 6.71573 1 15 1H31.7969V49Z"/>
</mask>
<path d="M31.7969 65V68H34.7969V65H31.7969ZM17.7754 65L17.7749 68H17.7754V65ZM15.4902 62.7148L12.4902 62.7148L12.4902 62.7154L15.4902 62.7148ZM17.7754 60.4287L17.7754 57.4287L17.7749 57.4287L17.7754 60.4287ZM31.7969 60.4287H34.7969V57.4287H31.7969V60.4287ZM31.7969 59.667V62.667H34.7969V59.667H31.7969ZM17.7754 59.667L17.7749 62.667H17.7754V59.667ZM15.4902 57.3809L12.4902 57.3808V57.3809H15.4902ZM17.7754 55.0957L17.7754 52.0957L17.7749 52.0957L17.7754 55.0957ZM31.7969 55.0957H34.7969V52.0957H31.7969V55.0957ZM31.7969 54.333V57.333H34.7969V54.333H31.7969ZM17.7754 54.333L17.7749 57.333H17.7754V54.333ZM15.4902 52.0479L12.4902 52.0479L12.4902 52.0481L15.4902 52.0479ZM17.7754 49.7617L17.7754 46.7617L17.7749 46.7617L17.7754 49.7617ZM31.7969 49.7617H34.7969V46.7617H31.7969V49.7617ZM31.7969 49V52H34.7969V49H31.7969ZM15.4902 39.0957H18.4902V36.0957H15.4902V39.0957ZM15 39.0957L15 42.0957H15V39.0957ZM0 24.0957L-3 24.0957L-3 24.0958L0 24.0957ZM0 16L-3 16V16H0ZM15 1L15 -2L15 1ZM31.7969 1H34.7969V-2H31.7969V1ZM31.7969 65V62H17.7754V65V68H31.7969V65ZM17.7754 65L17.7759 62C18.1703 62.0001 18.4902 62.3199 18.4902 62.7143L15.4902 62.7148L12.4902 62.7154C12.4908 65.6338 14.8564 67.9995 17.7749 68L17.7754 65ZM15.4902 62.7148H18.4902C18.4902 63.1083 18.1713 63.4286 17.7759 63.4287L17.7754 60.4287L17.7749 57.4287C14.8551 57.4292 12.4902 59.7969 12.4902 62.7148H15.4902ZM17.7754 60.4287V63.4287H31.7969V60.4287V57.4287H17.7754V60.4287ZM31.7969 60.4287H28.7969V65H31.7969H34.7969V60.4287H31.7969ZM31.7969 59.667V56.667H17.7754V59.667V62.667H31.7969V59.667ZM17.7754 59.667L17.7759 56.667C18.1713 56.6671 18.4902 56.9874 18.4902 57.3809H15.4902H12.4902C12.4902 60.2988 14.8551 62.6665 17.7749 62.667L17.7754 59.667ZM15.4902 57.3809L18.4902 57.3809C18.4902 57.776 18.1698 58.0956 17.7759 58.0957L17.7754 55.0957L17.7749 52.0957C14.8567 52.0962 12.4903 54.4614 12.4902 57.3808L15.4902 57.3809ZM17.7754 55.0957V58.0957H31.7969V55.0957V52.0957H17.7754V55.0957ZM31.7969 55.0957H28.7969V59.667H31.7969H34.7969V55.0957H31.7969ZM31.7969 54.333V51.333H17.7754V54.333V57.333H31.7969V54.333ZM17.7754 54.333L17.7759 51.333C18.1699 51.3331 18.4902 51.6528 18.4902 52.0476L15.4902 52.0479L12.4902 52.0481C12.4905 54.9672 14.8566 57.3325 17.7749 57.333L17.7754 54.333ZM15.4902 52.0479H18.4902C18.4902 52.4413 18.1713 52.7616 17.7759 52.7617L17.7754 49.7617L17.7749 46.7617C14.8551 46.7622 12.4902 49.1299 12.4902 52.0479H15.4902ZM17.7754 49.7617V52.7617H31.7969V49.7617V46.7617H17.7754V49.7617ZM31.7969 49.7617H28.7969V54.333H31.7969H34.7969V49.7617H31.7969ZM31.7969 49V46H20.4902V49V52H31.7969V49ZM20.4902 49V46C19.3857 46 18.4902 45.1046 18.4902 44H15.4902H12.4902C12.4902 48.4183 16.072 52 20.4902 52V49ZM15.4902 44H18.4902V39.0957H15.4902H12.4902V44H15.4902ZM15.4902 39.0957V36.0957H15V39.0957V42.0957H15.4902V39.0957ZM15 39.0957L15 36.0957C8.37283 36.0957 3.0002 30.723 3 24.0956L0 24.0957L-3 24.0958C-2.9997 34.0365 5.05894 42.0957 15 42.0957L15 39.0957ZM0 24.0957H3V16H0H-3V24.0957H0ZM0 16L3 16C3 9.37259 8.37259 4 15 4L15 1L15 -2C5.05888 -2 -2.99999 6.05888 -3 16L0 16ZM15 1V4H31.7969V1V-2H15V1ZM31.7969 1H28.7969V49H31.7969H34.7969V1H31.7969Z" fill="#0077FF" mask="url(#path-2-inside-1_1034_1964)"/>
</svg>
