<svg width="86" height="57" viewBox="0 0 86 57" fill="none" xmlns="http://www.w3.org/2000/svg">
<path fill-rule="evenodd" clip-rule="evenodd" d="M49.049 3.5209C47.6808 3.33847 46.465 4.40286 46.465 5.78317V37.4778C46.465 38.5768 46.9017 39.6309 47.6788 40.4081L48.5103 41.2395C48.7551 41.4843 49.0871 41.6219 49.4334 41.6219H50.2551C52.1791 41.6219 53.7388 43.1816 53.7388 45.1056C53.7388 47.0297 52.1791 48.5894 50.2551 48.5894H48.6019C47.4218 48.5894 46.465 49.5461 46.465 50.7263V53.855H48.3753C53.8972 53.855 58.8676 50.5067 60.9423 45.3893L61.2238 44.6949C61.8708 43.0988 62.8318 41.6488 64.0496 40.431L66.3166 38.164C66.7154 37.7652 66.9394 37.2243 66.9394 36.6604V28.4463C66.9394 26.6515 66.1742 24.9501 64.8498 23.761L63.2553 28.1902C62.6341 29.9158 60.9972 31.0662 59.1632 31.0662H58.2497C55.4363 31.0662 53.6065 28.1055 54.8647 25.5892L56.2063 26.26L54.9082 25.5084L56.5985 22.5888C57.7407 20.6158 58.3432 18.3634 58.3432 16.0811C58.3432 11.3138 55.7146 6.91245 51.5136 4.67193L49.8214 3.76938C49.5808 3.64109 49.3192 3.55693 49.049 3.5209ZM58.2497 28.0662C57.678 28.0662 57.3022 27.4764 57.5333 26.9618L59.1948 24.0919C60.6027 21.6599 61.3432 18.8887 61.3432 16.0811C61.3432 10.2121 58.1095 4.7897 52.9254 2.02487L51.2331 1.12232C50.6764 0.825386 50.0709 0.630606 49.4455 0.547212C46.2788 0.124993 43.465 2.58849 43.465 5.78317V37.4778C43.465 39.3725 44.2177 41.1896 45.5575 42.5294L46.3889 43.3608C47.1964 44.1683 48.2915 44.6219 49.4334 44.6219H50.2551C50.5222 44.6219 50.7388 44.8385 50.7388 45.1056C50.7388 45.3728 50.5222 45.5894 50.2551 45.5894H48.6019C45.7649 45.5894 43.465 47.8892 43.465 50.7263V53.9774C43.465 55.5667 44.7534 56.855 46.3427 56.855H48.3753C55.1188 56.855 61.1889 52.7659 63.7225 46.5164L64.004 45.822C64.5002 44.5981 65.2371 43.4862 66.171 42.5523L68.4379 40.2853C69.3993 39.3239 69.9394 38.02 69.9394 36.6604V28.4463C69.9394 25.5598 68.5987 22.8369 66.3108 21.077C64.8846 19.9799 62.8032 20.5892 62.1937 22.2822L60.4326 27.1741C60.2399 27.7094 59.7321 28.0662 59.1632 28.0662H58.2497ZM29.0952 54.3372L29.0958 54.308C29.125 53.2379 30.0016 52.3794 31.0788 52.3794H39.32H42.32V53.3469V54.7181V55.3794V56.3469H39.32H31.0788C29.9832 56.3469 29.095 55.4587 29.095 54.3631L29.0952 54.3372ZM29.095 49.7344C29.095 49.716 29.0953 49.6976 29.0958 49.6793C29.125 48.6092 30.0016 47.7506 31.0788 47.7506H39.32H42.32V48.7181V49.3794V50.0894V50.7506V51.7181H39.32H31.0788C30.0016 51.7181 29.125 50.8596 29.0958 49.7895L29.0953 49.7669L29.095 49.7344ZM29.095 45.1056C29.095 44.6851 29.2259 44.2951 29.4492 43.9741C29.8075 43.459 30.4038 43.1219 31.0788 43.1219H34.095H39.32H42.32V44.0894V44.7506V45.4606V46.1219V47.0894H39.32H31.0788C30.0016 47.0894 29.125 46.2309 29.0958 45.1608C29.0953 45.1424 29.095 45.1241 29.095 45.1056ZM29.095 37.4606V33.6675C21.9694 32.5037 16.5313 26.3191 16.5313 18.8644V15.8019C16.5313 7.51759 23.247 0.801848 31.5313 0.801848H39.32H42.32V3.80185V39.4606V40.1219V42.4606H39.32H34.095C32.9621 42.4606 31.9172 42.0838 31.0788 41.4487C30.6384 41.1151 30.2549 40.7103 29.9457 40.2513C29.4086 39.4542 29.095 38.494 29.095 37.4606ZM31.5313 3.80185H39.32V39.4606H34.095C32.9905 39.4606 32.095 38.5652 32.095 37.4606V33.6675V31.1178L29.5786 30.7068C23.8805 29.7761 19.5313 24.8253 19.5313 18.8644V15.8019C19.5313 9.17444 24.9039 3.80185 31.5313 3.80185ZM72.0763 28.5744C72.0763 27.844 72.6684 27.2519 73.3988 27.2519H83.9788C84.7092 27.2519 85.3013 27.844 85.3013 28.5744C85.3013 29.3048 84.7092 29.8969 83.9788 29.8969H73.3988C72.6684 29.8969 72.0763 29.3048 72.0763 28.5744ZM11.9025 27.2519C12.6329 27.2519 13.225 27.844 13.225 28.5744C13.225 29.3048 12.6329 29.8969 11.9025 29.8969H1.3225C0.592104 29.8969 0 29.3048 0 28.5744C0 27.844 0.592105 27.2519 1.3225 27.2519H11.9025ZM73.0115 11.0885C72.495 10.572 72.495 9.73467 73.0115 9.2182L80.4927 1.73701C81.0091 1.22054 81.8465 1.22054 82.363 1.73701C82.8794 2.25348 82.8794 3.09084 82.363 3.60731L74.8818 11.0885C74.3653 11.605 73.5279 11.605 73.0115 11.0885ZM12.2899 9.2182C12.8063 9.73467 12.8063 10.572 12.2899 11.0885C11.7734 11.605 10.936 11.605 10.4196 11.0885L2.93837 3.60731C2.4219 3.09084 2.4219 2.25348 2.93837 1.73701C3.45484 1.22054 4.2922 1.22054 4.80867 1.73701L12.2899 9.2182ZM73.0114 46.0408C73.5279 45.5243 74.3652 45.5243 74.8817 46.0408L82.3629 53.522C82.8794 54.0384 82.8794 54.8758 82.3629 55.3923C81.8464 55.9087 81.0091 55.9087 80.4926 55.3923L73.0114 47.9111C72.495 47.3946 72.4949 46.5573 73.0114 46.0408ZM10.4196 46.0408C10.9361 45.5243 11.7734 45.5243 12.2899 46.0408C12.8064 46.5573 12.8064 47.3946 12.2899 47.9111L4.80871 55.3923C4.29224 55.9087 3.45488 55.9087 2.93841 55.3923C2.42194 54.8758 2.42194 54.0384 2.93841 53.522L10.4196 46.0408Z" fill="#0077FF"/>
</svg>
