<svg width="104" height="52" viewBox="0 0 104 52" fill="none" xmlns="http://www.w3.org/2000/svg">
<path fill-rule="evenodd" clip-rule="evenodd" d="M-1.3857e-06 20.2989L50.5939 1.60317e-06L104 20.2995L76.6599 29.258L76.6599 46.8096C76.6599 49.6762 74.327 52 71.4492 52L31.0669 52C28.1891 52 25.8562 49.6762 25.8562 46.8096L25.8562 29.2419L-1.3857e-06 20.2989ZM28.4615 30.143L28.4615 46.8096C28.4615 48.2429 29.628 49.4048 31.0669 49.4048L71.4492 49.4048C72.8881 49.4048 74.0545 48.2429 74.0545 46.8096L74.0545 30.1117L50.5954 37.7985L28.4615 30.143ZM7.42214 20.1189L50.618 35.0591L96.2154 20.1183L50.6196 2.78748L7.42214 20.1189Z" fill="white"/>
</svg>
