<svg width="26" height="26" viewBox="0 0 26 26" fill="none" xmlns="http://www.w3.org/2000/svg">
<path fill-rule="evenodd" clip-rule="evenodd" d="M3 3H17V6.32451H20V3C20 1.34315 18.6569 0 17 0H3C1.34315 0 0 1.34315 0 3V23C0 24.6569 1.34315 26 3 26H17C18.6569 26 20 24.6569 20 23V19.8164H17V23H3L3 3Z" fill="black"/>
<path d="M25.5258 13.6052C25.8211 13.3148 25.8251 12.8399 25.5347 12.5446L20.8018 7.73226C20.5114 7.43695 20.0366 7.43302 19.7412 7.72347C19.4459 8.01393 19.4419 8.48879 19.7323 8.7841L23.9393 13.0617L19.6613 17.2691C19.3659 17.5595 19.362 18.0344 19.6524 18.3297C19.9428 18.625 20.4177 18.6289 20.713 18.3385L25.5258 13.6052ZM7.99372 13.6797L24.9936 13.8205L25.0062 12.3205L8.00628 12.1797L7.99372 13.6797Z" fill="black"/>
</svg>
