<svg width="51" height="68" viewBox="0 0 51 68" fill="none" xmlns="http://www.w3.org/2000/svg">
<path fill-rule="evenodd" clip-rule="evenodd" d="M0 5C0 2.23858 2.23858 0 5 0H46C48.7614 0 51 2.23858 51 5V63C51 65.7614 48.7614 68 46 68H5C2.23858 68 0 65.7614 0 63V5ZM17 9.5C17 8.94771 17.4477 8.5 18 8.5H45.75C46.3023 8.5 46.75 8.94771 46.75 9.5V14.3C46.75 14.8523 46.3023 15.3 45.75 15.3H18C17.4477 15.3 17 14.8523 17 14.3V9.5ZM18 19.5499C17.4477 19.5499 17 19.9977 17 20.5499V25.3499C17 25.9022 17.4477 26.3499 18 26.3499H45.75C46.3023 26.3499 46.75 25.9022 46.75 25.3499V20.5499C46.75 19.9977 46.3023 19.5499 45.75 19.5499H18ZM17 31.6002C17 31.0479 17.4477 30.6002 18 30.6002H45.75C46.3023 30.6002 46.75 31.0479 46.75 31.6002V36.4002C46.75 36.9525 46.3023 37.4002 45.75 37.4002H18C17.4477 37.4002 17 36.9525 17 36.4002V31.6002ZM18 41.6498C17.4477 41.6498 17 42.0975 17 42.6498V47.4498C17 48.0021 17.4477 48.4498 18 48.4498H45.75C46.3023 48.4498 46.75 48.0021 46.75 47.4498V42.6498C46.75 42.0975 46.3023 41.6498 45.75 41.6498H18ZM17 53.6997C17 53.1475 17.4477 52.6997 18 52.6997H45.75C46.3023 52.6997 46.75 53.1475 46.75 53.6997V58.4997C46.75 59.052 46.3023 59.4997 45.75 59.4997H18C17.4477 59.4997 17 59.052 17 58.4997V53.6997ZM15.2796 7.35863C15.588 6.90046 15.4665 6.27905 15.0084 5.97067C14.5502 5.66228 13.9288 5.78371 13.6204 6.24188L7.58461 15.2093L5.07959 11.4876C4.7712 11.0294 4.14979 10.908 3.69162 11.2164C3.23345 11.5248 3.11203 12.1462 3.42041 12.6043L5.92544 16.3261C6.7181 17.5038 8.45113 17.5038 9.24379 16.3261L15.2796 7.35863ZM15.0084 17.0206C15.4665 17.329 15.588 17.9504 15.2796 18.4086L9.24379 27.376C8.45113 28.5537 6.7181 28.5537 5.92544 27.376L3.42041 23.6543C3.11203 23.1961 3.23345 22.5747 3.69162 22.2663C4.14979 21.9579 4.7712 22.0794 5.07959 22.5375L7.58461 26.2593L13.6204 17.2918C13.9288 16.8336 14.5502 16.7122 15.0084 17.0206ZM15.2796 29.4579C15.588 28.9997 15.4665 28.3783 15.0084 28.0699C14.5502 27.7615 13.9288 27.8829 13.6204 28.3411L7.58461 37.3086L5.07959 33.5868C4.7712 33.1287 4.14979 33.0072 3.69162 33.3156C3.23345 33.624 3.11203 34.2454 3.42041 34.7036L5.92544 38.4253C6.7181 39.603 8.45113 39.603 9.24379 38.4253L15.2796 29.4579ZM15.0084 39.1205C15.4665 39.4289 15.588 40.0503 15.2796 40.5084L9.24379 49.4759C8.45113 50.6536 6.7181 50.6536 5.92544 49.4759L3.42041 45.7542C3.11203 45.296 3.23345 44.6746 3.69162 44.3662C4.14979 44.0578 4.7712 44.1792 5.07959 44.6374L7.58461 48.3592L13.6204 39.3917C13.9288 38.9335 14.5502 38.8121 15.0084 39.1205ZM15.2796 51.5584C15.588 51.1002 15.4665 50.4788 15.0084 50.1704C14.5502 49.862 13.9288 49.9835 13.6204 50.4416L7.58461 59.4091L5.07959 55.6873C4.7712 55.2292 4.14979 55.1077 3.69162 55.4161C3.23345 55.7245 3.11203 56.3459 3.42041 56.8041L5.92544 60.5258C6.7181 61.7035 8.45113 61.7035 9.24379 60.5258L15.2796 51.5584Z" fill="white"/>
</svg>
