<svg width="18" height="20" viewBox="0 0 18 20" fill="none" xmlns="http://www.w3.org/2000/svg">
<path fill-rule="evenodd" clip-rule="evenodd" d="M6.48837 1.06383C6.48837 0.476293 6.95691 0 7.53488 0H10.4651C11.0431 0 11.5116 0.476293 11.5116 1.06383V2.34043H16.9535C17.5315 2.34043 18 2.81672 18 3.40426C18 3.99179 17.5315 4.46809 16.9535 4.46809H1.04651C0.46854 4.46809 0 3.99179 0 3.40426C0 2.81672 0.468539 2.34043 1.04651 2.34043H6.48837V1.06383ZM7.32558 2.34043H10.6744V1.91489C10.6744 1.32736 10.2059 0.851064 9.62791 0.851064H8.37209C7.79412 0.851064 7.32558 1.32736 7.32558 1.91489V2.34043Z" fill="black"/>
<path fill-rule="evenodd" clip-rule="evenodd" d="M11.3023 2.55319V1.06383C11.3023 0.5938 10.9275 0.212766 10.4651 0.212766H7.53488C7.07251 0.212766 6.69767 0.5938 6.69767 1.06383V2.55319H1.04651C0.584134 2.55319 0.209302 2.93423 0.209302 3.40426C0.209302 3.87428 0.584134 4.25532 1.04651 4.25532H16.9535C17.4159 4.25532 17.7907 3.87428 17.7907 3.40426C17.7907 2.93423 17.4159 2.55319 16.9535 2.55319H11.3023ZM7.11628 2.55319V1.91489C7.11628 1.20985 7.67853 0.638298 8.37209 0.638298H9.62791C10.3215 0.638298 10.8837 1.20985 10.8837 1.91489V2.55319H7.11628ZM6.48837 2.34043H1.04651C0.468539 2.34043 0 2.81672 0 3.40426C0 3.99179 0.46854 4.46809 1.04651 4.46809H16.9535C17.5315 4.46809 18 3.99179 18 3.40426C18 2.81672 17.5315 2.34043 16.9535 2.34043H11.5116V1.06383C11.5116 0.476293 11.0431 0 10.4651 0H7.53488C6.95691 0 6.48837 0.476293 6.48837 1.06383V2.34043ZM10.6744 1.91489C10.6744 1.32736 10.2059 0.851064 9.62791 0.851064H8.37209C7.79412 0.851064 7.32558 1.32736 7.32558 1.91489V2.34043H10.6744V1.91489Z" fill="black"/>
<path fill-rule="evenodd" clip-rule="evenodd" d="M16.326 6.17028C16.326 5.58274 15.8574 5.10645 15.2795 5.10645H2.72132C2.14334 5.10645 1.6748 5.58274 1.6748 6.17027V18.9362C1.6748 19.5238 2.14334 20.0001 2.72132 20.0001H15.2795C15.8574 20.0001 16.326 19.5238 16.326 18.9362V6.17028ZM5.44225 6.91496C5.44225 6.50368 5.11427 6.17028 4.70969 6.17028V6.17028C4.30511 6.17028 3.97713 6.50368 3.97713 6.91496V18.1916C3.97713 18.6028 4.30511 18.9362 4.70969 18.9362C5.11427 18.9362 5.44225 18.6028 5.44225 18.1916V6.91496ZM8.16318 6.91496C8.16318 6.50368 8.49115 6.17028 8.89573 6.17028V6.17028C9.30032 6.17028 9.62829 6.50368 9.62829 6.91496V18.1916C9.62829 18.6028 9.30032 18.9362 8.89573 18.9362C8.49115 18.9362 8.16318 18.6028 8.16318 18.1916V6.91496ZM13.8143 6.91496C13.8143 6.50368 13.4864 6.17028 13.0818 6.17028V6.17028C12.6772 6.17028 12.3492 6.50368 12.3492 6.91496V18.1916C12.3492 18.6028 12.6772 18.9362 13.0818 18.9362C13.4864 18.9362 13.8143 18.6028 13.8143 18.1916V6.91496Z" fill="black"/>
<path fill-rule="evenodd" clip-rule="evenodd" d="M15.2795 5.31921H2.72132C2.25894 5.31921 1.88411 5.70025 1.88411 6.17027V18.9362C1.88411 19.4063 2.25894 19.7873 2.72132 19.7873H15.2795C15.7418 19.7873 16.1167 19.4063 16.1167 18.9362V6.17028C16.1167 5.70025 15.7418 5.31921 15.2795 5.31921ZM3.76783 18.1916V6.91496C3.76783 6.38617 4.18951 5.95751 4.70969 5.95751C5.22986 5.95751 5.65155 6.38617 5.65155 6.91496V18.1916C5.65155 18.7203 5.22986 19.149 4.70969 19.149C4.18951 19.149 3.76783 18.7203 3.76783 18.1916ZM9.8376 6.91496V18.1916C9.8376 18.7203 9.41591 19.149 8.89573 19.149C8.37556 19.149 7.95387 18.7203 7.95387 18.1916V6.91496C7.95387 6.38617 8.37556 5.95751 8.89573 5.95751C9.41591 5.95751 9.8376 6.38617 9.8376 6.91496ZM12.1399 18.1916V6.91496C12.1399 6.38617 12.5616 5.95751 13.0818 5.95751C13.602 5.95751 14.0236 6.38617 14.0236 6.91496V18.1916C14.0236 18.7203 13.602 19.149 13.0818 19.149C12.5616 19.149 12.1399 18.7203 12.1399 18.1916ZM15.2795 5.10645C15.8574 5.10645 16.326 5.58274 16.326 6.17028V18.9362C16.326 19.5238 15.8574 20.0001 15.2795 20.0001H2.72132C2.14334 20.0001 1.6748 19.5238 1.6748 18.9362V6.17027C1.6748 5.58274 2.14334 5.10645 2.72132 5.10645H15.2795ZM4.70969 6.17028C5.11427 6.17028 5.44225 6.50368 5.44225 6.91496V18.1916C5.44225 18.6028 5.11427 18.9362 4.70969 18.9362C4.30511 18.9362 3.97713 18.6028 3.97713 18.1916V6.91496C3.97713 6.50368 4.30511 6.17028 4.70969 6.17028ZM8.89573 6.17028C8.49115 6.17028 8.16318 6.50368 8.16318 6.91496V18.1916C8.16318 18.6028 8.49115 18.9362 8.89573 18.9362C9.30032 18.9362 9.62829 18.6028 9.62829 18.1916V6.91496C9.62829 6.50368 9.30032 6.17028 8.89573 6.17028ZM13.0818 6.17028C13.4864 6.17028 13.8143 6.50368 13.8143 6.91496V18.1916C13.8143 18.6028 13.4864 18.9362 13.0818 18.9362C12.6772 18.9362 12.3492 18.6028 12.3492 18.1916V6.91496C12.3492 6.50368 12.6772 6.17028 13.0818 6.17028Z" fill="black"/>
</svg>
